<?xml version="1.0" encoding="UTF-8"?>
<svg width="669px" height="198px" viewBox="0 0 669 198" version="1.1" xmlns="http://www.w3.org/2000/svg" xmlns:xlink="http://www.w3.org/1999/xlink">
    <title>Group</title>
    <g id="Page-2" stroke="none" stroke-width="1" fill="none" fill-rule="evenodd">
        <g id="Artboard" transform="translate(-92.000000, -452.000000)" fill-rule="nonzero">
            <g id="Group" transform="translate(92.000000, 452.000000)">
                <g id="Group" fill="#BE3144">
                    <path d="M133.144458,20.5953488 C132.22449,20.344186 131.388155,20.8465116 131.053621,21.6837209 C129.046419,28.4651163 127.122849,37.0046512 125.951981,42.027907 C125.533814,44.0372093 125.19928,45.4604651 125.115646,45.7116279 C124.697479,46.5488372 122.439376,50.9860465 117.672269,51.3209302 L91.494998,51.3209302 C86.5606242,50.9860465 84.302521,46.6325581 84.0516206,45.9627907 C83.8843537,45.3767442 83.5498199,43.9534884 83.1316527,42.027907 C81.9607843,36.9209302 80.0372149,28.4651163 78.030012,21.6837209 C77.7791116,20.7627907 76.8591437,20.344186 75.9391757,20.5953488 C75.1028411,20.8465116 74.6010404,21.7674419 74.8519408,22.6883721 C76.7755102,29.3860465 78.7827131,37.8418605 79.9535814,42.8651163 C80.4553822,44.9581395 80.789916,46.3813953 81.0408163,47.2186047 C81.542617,48.3906977 84.5534214,54.2511628 91.494998,54.7534884 L104.541817,54.7534884 L117.839536,54.7534884 C124.613846,54.2511628 127.62465,48.3906977 128.293717,46.9674419 C128.460984,46.3813953 128.795518,44.8744186 129.297319,42.8651163 C130.468187,37.8418605 132.391757,29.3860465 134.39896,22.6883721 C134.566226,21.7674419 134.064426,20.9302326 133.144458,20.5953488 Z" id="Path"></path>
                    <path d="M4.09803922,93.3488372 L204.901961,93.3488372 C207.160064,93.3488372 209,91.5069767 209,89.2465116 C209,86.9860465 207.160064,85.144186 204.901961,85.144186 L193.527811,85.144186 C191.436975,37.8418605 152.296519,0 104.541817,0 C56.7871148,0 17.6466587,37.8418605 15.4721889,85.144186 L4.09803922,85.144186 C1.83993597,85.144186 0,86.9860465 0,89.2465116 C0,91.5069767 1.83993597,93.3488372 4.09803922,93.3488372 Z M104.541817,8.28837209 C147.780312,8.28837209 183.157263,42.3627907 185.331733,85.144186 L23.7519008,85.144186 C25.9263705,42.3627907 61.3033213,8.28837209 104.541817,8.28837209 Z" id="Shape"></path>
                    <path d="M83.6334534,144.418605 C89.9895958,148.353488 97.2657063,150.446512 104.62545,150.446512 C104.792717,150.446512 105.043617,150.446512 105.210884,150.446512 C108.388956,150.362791 111.567027,149.944186 114.577831,149.190698 C125.19928,146.427907 134.064426,139.562791 139.751501,129.851163 C143.180472,123.823256 145.020408,116.95814 145.020408,110.093023 C145.020408,109.172093 144.267707,108.418605 143.347739,108.418605 C142.427771,108.418605 141.67507,109.172093 141.67507,110.093023 C141.67507,116.372093 140.002401,122.651163 136.907963,128.176744 C131.722689,137.134884 123.526611,143.497674 113.82513,146.009302 C111.065226,146.67907 108.221689,147.097674 105.294518,147.181395 C98.4365746,147.348837 91.494998,145.423256 85.4733894,141.655814 C76.7755102,136.297674 70.7539016,127.925581 68.4957983,118.213953 C67.9103641,115.702326 67.5758303,113.023256 67.5758303,110.093023 C67.5758303,109.172093 66.8231293,108.418605 65.9031613,108.418605 C64.9831933,108.418605 64.2304922,109.172093 64.2304922,110.093023 C64.2304922,113.190698 64.565026,116.204651 65.2340936,118.967442 C67.6594638,129.516279 74.1828731,138.55814 83.6334534,144.418605 Z" id="Path"></path>
                    <path d="M19.8211285,110.260465 C19.9047619,108 18.1484594,106.074419 15.8903561,105.906977 C13.6322529,105.823256 11.7086835,107.581395 11.5414166,109.84186 C11.4577831,111.013953 11.4577831,112.269767 11.3741497,113.609302 C11.3741497,114.781395 11.2905162,116.037209 11.2068828,117.209302 C11.0396158,121.144186 12.6286515,124.074419 15.7230892,126 C16.3085234,126.418605 17.0612245,126.837209 17.9811925,127.172093 L18.5666267,127.423256 C20.4065626,128.176744 22.9155662,129.181395 24.9227691,130.353488 C25.5918367,130.772093 26.1772709,131.190698 26.7627051,131.609302 C41.3985594,144.418605 46.5838335,157.897674 43.1548619,173.972093 C42.1512605,178.576744 43.7402961,182.176744 47.6710684,184.604651 C52.6054422,187.534884 57.9579832,190.8 63.9795918,194.651163 C68.997599,197.748837 73.0120048,195.906977 75.5210084,193.897674 C82.8807523,187.953488 90.6586635,184.939535 99.3565426,184.855814 C105.796319,184.772093 112.905162,186.27907 120.766707,189.460465 C121.352141,189.627907 121.937575,189.962791 122.77391,190.465116 C124.362945,191.469767 126.035614,192.809302 127.541016,194.148837 L128.628251,195.153488 C129.297319,195.739535 130.05002,196.24186 130.719088,196.660465 C132.22449,197.581395 133.897159,198 135.653461,198 C137.32613,198 138.9988,197.581395 140.587835,196.660465 C143.84954,194.818605 147.278511,192.893023 150.205682,191.386047 L157.565426,187.451163 C161.496198,185.274419 163.252501,181.590698 162.416166,177.069767 C160.743497,168.111628 162.583433,159.404651 168.186875,149.776744 C173.623049,140.316279 181.066427,134.288372 190.851541,131.274419 C194.865946,130.018605 197.12405,127.004651 197.291317,122.651163 L197.458583,117.125581 C197.542217,114.865116 197.62585,112.52093 197.709484,110.176744 C197.793117,107.916279 195.953181,105.990698 193.695078,105.906977 C191.353341,105.823256 189.513405,107.665116 189.429772,109.925581 C189.346138,112.269767 189.262505,114.530233 189.262505,116.790698 L189.095238,122.4 C189.095238,122.902326 189.011605,123.069767 189.011605,123.069767 C189.011605,123.069767 188.844338,123.237209 188.509804,123.32093 C176.633854,127.004651 167.601441,134.288372 161.078031,145.590698 C154.470988,157.060465 152.296519,167.525581 154.387355,178.493023 C154.554622,179.581395 154.470988,179.665116 153.718287,180.083721 L146.442177,183.934884 C143.431373,185.609302 139.918768,187.534884 136.657063,189.376744 C135.904362,189.795349 135.402561,189.627907 135.151661,189.460465 C134.90076,189.293023 134.566226,189.04186 134.39896,188.95814 L132.977191,187.702326 C131.220888,186.195349 129.297319,184.52093 127.122849,183.265116 C125.868347,182.511628 124.697479,181.925581 123.777511,181.590698 C115.079632,178.074419 106.883553,176.316279 99.3565426,176.483721 C88.735094,176.651163 79.2845138,180.251163 70.4193677,187.451163 C69.4993998,188.204651 69.2484994,188.12093 68.4121649,187.618605 C62.3905562,183.767442 56.9543818,180.418605 51.9363745,177.488372 C51.3509404,177.153488 51.1836735,176.902326 51.1836735,176.902326 C51.1836735,176.902326 51.10004,176.567442 51.2673069,175.730233 C55.3653461,156.725581 49.1764706,140.232558 32.1988796,125.413953 C31.2789116,124.576744 30.1916767,123.906977 29.2717087,123.32093 C26.7627051,121.813953 23.9191677,120.64186 21.9119648,119.888372 L20.9083633,119.469767 C20.657463,119.386047 20.4065626,119.218605 20.0720288,119.051163 C19.4865946,118.716279 19.4029612,118.632558 19.4865946,117.711628 C19.5702281,116.455814 19.5702281,115.283721 19.6538615,114.027907 C19.737495,112.604651 19.737495,111.432558 19.8211285,110.260465 Z" id="Path"></path>
                </g>
                <g id="SvgjsG5030" transform="translate(251.000000, 63.000000)" fill="#303841">
                    <path d="M25.653165,42.3018109 C25.653165,41.861167 25.2866912,41.3470825 24.9202174,41.2736419 L2.0522532,33.0482897 C0.952831843,32.6810865 0.0732947571,31.4325956 0.0732947571,30.2575453 L0.0732947571,26.5855131 C0.0732947571,21.5181087 4.1045064,18.360161 9.16184464,18.360161 L26.0196388,18.360161 L26.0196388,20.5633803 C26.0196388,21.0040241 25.653165,21.3712274 25.2133965,21.3712274 L9.16184464,21.3712274 C5.93687533,21.3712274 3.37155883,23.4275654 3.37155883,26.6589537 L3.37155883,29.3762575 C3.37155883,29.8169014 3.73803261,30.2575453 4.1045064,30.4044266 L26.8258811,38.6297787 C27.9253025,38.9969819 28.8048396,40.2454728 28.8048396,41.4205231 L28.8048396,47.0020121 C28.8048396,52.1428571 24.7003332,55.0804829 19.7162897,55.0804829 L0,55.0804829 L0,52.8038229 C0,52.3631791 0.366473786,51.9959759 0.806242329,51.9959759 L19.7162897,51.9959759 C22.8679642,51.9959759 25.653165,50.2334004 25.653165,47.0754527 L25.653165,42.3018109 L25.653165,42.3018109 Z M57.6096791,18.360161 C62.6670174,18.360161 66.698229,22.1056338 66.698229,27.3933602 L66.698229,46.1207243 C66.698229,51.2615694 62.6670174,55.0804829 57.6096791,55.0804829 L43.3172015,55.0804829 C42.2910749,55.0804829 41.4115378,54.4929577 41.2649483,53.6851107 L41.2649483,72.1921529 C41.2649483,72.6327968 40.8984745,73 40.4587059,73 L37.9666842,73 L37.9666842,19.168008 C37.9666842,18.7273642 38.333158,18.360161 38.7729265,18.360161 L57.6096791,18.360161 Z M63.3999649,46.1207243 L63.3999649,27.2464789 C63.3999649,24.0150905 60.8346484,21.3712274 57.6096791,21.3712274 L41.2649483,21.3712274 L41.2649483,43.8440644 L41.2649483,50.7474849 C41.338243,51.4084507 41.8513063,51.9225352 42.5109591,51.9959759 L57.6096791,51.9959759 C60.8346484,51.9959759 63.3999649,49.3521127 63.3999649,46.1207243 L63.3999649,46.1207243 Z M93.3042258,18.2867203 C98.3615641,18.2867203 102.392776,22.472837 102.392776,27.5402414 L102.392776,54.2726358 C102.392776,54.7132797 102.026302,55.0804829 101.586533,55.0804829 L83.1895494,55.0804829 C78.1322111,55.0804829 74.1009995,50.9678068 74.1009995,45.9004024 L74.1009995,42.0814889 C74.1009995,36.9406439 78.1322111,32.8279678 83.1895494,32.8279678 L98.2882693,32.8279678 C98.7280379,32.8279678 99.0212169,32.5342052 99.0945117,32.0201207 L99.0945117,27.2464789 C99.0945117,24.0150905 96.5291952,21.3712274 93.3042258,21.3712274 L77.9856216,21.3712274 C77.6191478,21.3712274 77.252674,21.0040241 77.252674,20.5633803 L77.252674,18.2867203 L93.3042258,18.2867203 L93.3042258,18.2867203 Z M83.1895494,51.8490946 L99.0945117,51.8490946 L99.0945117,35.6187123 C98.9479221,35.7655936 98.7280379,35.9124748 98.5081536,35.9124748 L83.1895494,35.9124748 C79.96458,35.9124748 77.3992635,38.556338 77.3992635,41.7877264 L77.3992635,46.0472837 C77.3992635,49.278672 79.96458,51.8490946 83.1895494,51.8490946 L83.1895494,51.8490946 Z M110.528494,45.9004024 L110.528494,27.6136821 C110.528494,22.5462777 114.559705,18.4336016 119.617044,18.4336016 L134.642469,18.4336016 L134.642469,20.6368209 C134.642469,21.0774648 134.34929,21.444668 133.909521,21.444668 L119.617044,21.444668 C116.392074,21.444668 113.826758,24.0885312 113.826758,27.3199195 L113.826758,46.194165 C113.826758,49.4255533 116.392074,51.9959759 119.617044,51.9959759 L133.909521,51.9959759 C134.34929,51.9959759 134.642469,52.3631791 134.642469,52.8038229 L134.642469,55.0804829 L119.617044,55.0804829 C114.559705,55.0804829 110.528494,50.9678068 110.528494,45.9004024 L110.528494,45.9004024 Z M152.013326,55.0804829 C146.955988,55.0804829 142.924776,51.7756539 142.924776,46.194165 L142.924776,27.1730382 C142.924776,21.6649899 146.809399,18.360161 151.793442,18.360161 L163.374014,18.360161 C168.358057,18.360161 172.242679,21.6649899 172.242679,27.1730382 L172.242679,37.1609658 C172.242679,37.6750503 171.876206,38.0422535 171.436437,38.0422535 L147.90882,38.0422535 C147.249167,38.0422535 146.662809,37.6750503 146.296335,37.1609658 L146.223041,37.1609658 L146.223041,46.1207243 C146.223041,49.3521127 148.788357,51.9225352 152.013326,51.9225352 L170.850079,51.9225352 C171.289847,51.9225352 171.656321,52.2897384 171.656321,52.7303823 L171.656321,55.0804829 L152.013326,55.0804829 Z M163.374014,21.3712274 L151.793442,21.3712274 C148.641767,21.3712274 146.223041,24.0150905 146.223041,27.2464789 L146.223041,34.1498994 C146.223041,34.5905433 146.51622,34.8843058 147.029283,34.9577465 L168.944415,34.9577465 L168.944415,27.2464789 C168.944415,24.0150905 166.525688,21.3712274 163.374014,21.3712274 L163.374014,21.3712274 Z M200.827635,18.360161 C205.884973,18.360161 209.916184,21.8118712 209.916184,27.3199195 L209.916184,46.1207243 C209.916184,51.6287726 205.884973,55.0804829 200.827635,55.0804829 L181.990882,55.0804829 C181.551113,55.0804829 181.18464,54.7132797 181.18464,54.2726358 L181.18464,0 L183.676661,0 C184.11643,0 184.482904,0.367203219 184.482904,0.807847082 L184.482904,19.7555332 C184.556198,18.9476861 185.50903,18.360161 186.535157,18.360161 L200.827635,18.360161 Z M206.76451,46.194165 L206.76451,27.2464789 C206.76451,24.0150905 204.052604,21.3712274 200.827635,21.3712274 L185.728915,21.3712274 C185.069262,21.444668 184.556198,21.9587525 184.482904,22.693159 L184.482904,29.5231388 L184.482904,51.9959759 L200.827635,51.9959759 C204.052604,51.9959759 206.76451,49.4255533 206.76451,46.194165 Z M218.198492,45.9004024 L218.198492,18.2867203 L220.690514,18.2867203 C221.130282,18.2867203 221.496756,18.6539235 221.496756,19.0945674 L221.496756,46.194165 C221.496756,49.4255533 224.062073,51.9959759 227.287042,51.9959759 L238.35455,51.9959759 C241.506225,51.9959759 244.071541,49.4255533 244.071541,46.194165 L244.071541,19.0945674 C244.071541,18.6539235 244.438015,18.2867203 244.877784,18.2867203 L247.369805,18.2867203 L247.369805,45.9004024 C247.369805,50.9678068 243.338594,55.0804829 238.35455,55.0804829 L227.287042,55.0804829 C222.229704,55.0804829 218.198492,50.9678068 218.198492,45.9004024 L218.198492,45.9004024 Z M256.091881,54.2726358 L256.091881,18.360161 L258.583903,18.360161 C259.023672,18.360161 259.390146,18.6539235 259.390146,19.0945674 L259.390146,55.0804829 L256.898124,55.0804829 C256.458355,55.0804829 256.091881,54.7132797 256.091881,54.2726358 Z M256.091881,5.50804829 L256.091881,2.05633803 L258.657198,2.05633803 C259.096967,2.05633803 259.390146,2.42354125 259.390146,2.79074447 L259.390146,6.24245473 L256.824829,6.24245473 C256.38506,6.24245473 256.091881,5.94869215 256.091881,5.50804829 L256.091881,5.50804829 Z M269.578117,54.2726358 L269.578117,3.0110664 L272.070139,3.0110664 C272.509907,3.0110664 272.876381,3.37826962 272.876381,3.81891348 L272.876381,55.0070423 L270.384359,55.0070423 C269.944591,55.0070423 269.578117,54.7132797 269.578117,54.2726358 Z M307.69139,0 L310.183412,0 L310.183412,54.2726358 C310.183412,54.7132797 309.816938,55.0804829 309.37717,55.0804829 L290.540417,55.0804829 C285.483079,55.0804829 281.451867,50.9678068 281.451867,45.9004024 L281.451867,27.5402414 C281.451867,22.472837 285.483079,18.360161 290.540417,18.360161 L304.832895,18.360161 C305.859022,18.360161 306.811853,18.9476861 306.885148,19.7555332 L306.885148,0.807847082 C306.885148,0.367203219 307.251622,0 307.69139,0 L307.69139,0 Z M290.540417,51.9959759 L306.885148,51.9959759 L306.885148,22.693159 C306.811853,21.9587525 306.29879,21.444668 305.639137,21.3712274 L290.540417,21.3712274 C287.315448,21.3712274 284.750132,24.0150905 284.750132,27.2464789 L284.750132,46.194165 C284.750132,49.4255533 287.315448,51.9959759 290.540417,51.9959759 L290.540417,51.9959759 Z M318.46572,45.9004024 L318.46572,27.6136821 C318.46572,22.5462777 322.496931,18.4336016 327.55427,18.4336016 L342.579695,18.4336016 L342.579695,20.6368209 C342.579695,21.0774648 342.286516,21.444668 341.846747,21.444668 L327.55427,21.444668 C324.3293,21.444668 321.763984,24.0885312 321.763984,27.3199195 L321.763984,46.194165 C321.763984,49.4255533 324.3293,51.9959759 327.55427,51.9959759 L341.846747,51.9959759 C342.286516,51.9959759 342.579695,52.3631791 342.579695,52.8038229 L342.579695,55.0804829 L327.55427,55.0804829 C322.496931,55.0804829 318.46572,50.9678068 318.46572,45.9004024 L318.46572,45.9004024 Z M370.871471,55.5945674 L359.803963,55.5945674 C354.746625,55.5945674 350.715413,51.4818913 350.715413,46.4144869 L350.715413,27.0995976 C350.715413,22.0321932 354.746625,17.8460765 359.803963,17.8460765 L370.871471,17.8460765 C375.855515,17.8460765 379.886726,22.0321932 379.886726,27.0995976 L379.886726,46.4144869 C379.886726,51.4818913 375.855515,55.5945674 370.871471,55.5945674 Z M370.871471,20.9305835 L359.803963,20.9305835 C356.578994,20.9305835 354.013677,23.5744467 354.013677,26.805835 L354.013677,46.7082495 C354.013677,49.9396378 356.578994,52.5100604 359.803963,52.5100604 L370.871471,52.5100604 C374.023146,52.5100604 376.588462,49.9396378 376.588462,46.7082495 L376.588462,26.805835 C376.588462,23.5744467 374.023146,20.9305835 370.871471,20.9305835 Z M414.701736,54.2726358 L414.701736,27.2464789 C414.701736,24.0150905 412.063125,21.3712274 408.91145,21.3712274 L392.859898,21.3712274 C392.42013,21.3712274 392.053656,21.7384306 392.053656,22.1790744 L392.053656,54.2726358 C392.053656,54.7132797 391.687182,55.0804829 391.247414,55.0804829 L388.755392,55.0804829 L388.755392,21.5915493 C388.755392,19.8289738 390.221287,18.2867203 391.980361,18.2867203 L408.91145,18.2867203 C413.895494,18.2867203 418,22.472837 418,27.5402414 L418,55.0804829 L415.434683,55.0804829 C415.06821,55.0804829 414.701736,54.7132797 414.701736,54.2726358 Z" id="Shape"></path>
                </g>
            </g>
        </g>
    </g>
</svg>